<?xml version="1.0" encoding="UTF-8"?>
<svg id="Layer_2" xmlns="http://www.w3.org/2000/svg" version="1.1" viewBox="0 0 400 400">
  <!-- Generator: Adobe Illustrator 29.6.1, SVG Export Plug-In . SVG Version: 2.1.1 Build 9)  -->
  <defs>
    <style>
      .st0 {
        fill: none;
      }

      .st1 {
        fill: #fff;
      }
    </style>
  </defs>
  <path class="st0" d="M201.72,0C90.31,0,0,89.55,0,200s90.31,200,201.72,200h198.28V0h-198.28Z"/>
  <g>
    <path class="st1" d="M100,199.99c0,42.79,26.82,79.27,64.57,93.58V106.42c-37.75,14.31-64.57,50.79-64.57,93.57"/>
    <path class="st1" d="M199.99,100c-2.77,0-5.51.1-8.22.31v7.03h.51c38.11.27,68.79,29.34,68.51,64.92-.25,35.42-31.12,63.93-69.02,63.89v63.54c2.71.23,5.45.31,8.22.31,55.21,0,100.01-44.77,100.01-100.02s-44.79-99.99-100.01-99.99"/>
  </g>
</svg>